Patient4_TMGait_0pt3_01_right_30_EMG.mot
version=1
nRows=40
nColumns=33
inDegrees=no
endheader
time	1LAddLong	2LGlutMax	3LGlutMed	4LIliopsoas	5LSemiMemb	6LBicFemLong	7LRecFem	8LVastMed	9LVastLat	10LGasMed	11LTibAnt	12lTibPost	13LPeroneusLong	14LSol	15LExtDigLong	16LFlexDigLong	17RAddLong	18RGlutMax	19RGlutMed	20RIliopsoas	21RSemiMemb	22RBicFemLong	23RRecFem	24RVastMed	25RVastLat	26RGasMed	27RTibAnt	28RTibPost	29RPeroneusLong	30RSol	31RExtDigLong	32RFlexDigLong
56.487	-0.017853	-0.090027	-0.026703	0.009613	-0.044098	0.099487	0.005798	0.007172	0.0177	-0.079803	-0.056	-0.013275	-0.025482	-0.034485	0.25971	0.007782	0.029907	-0.40237	1.3374	-0.080261	-0.26123	-0.012817	0.11688	-0.31448	0.085297	0.042114	-1.2627	0.003357	0.39673	-0.38773	-0.001831	-0.015411
56.488	-0.019989	-0.11276	-0.03418	0.009003	-0.03418	0.008087	-0.012054	0.011597	0.044861	-0.048523	-0.081787	-0.011444	-0.032043	-0.08728	0.072327	-0.003815	0.011292	-0.37567	0.11688	-0.045624	-0.42023	-0.068359	0.019836	0.055084	0.082092	0.013733	-0.83832	-0.005951	0.20218	-0.2417	0.001373	-0.006409
56.489	-0.002594	-0.050812	-0.042419	0.011139	-0.047455	-0.14542	-0.045013	0.007782	0.063629	-0.016479	-0.08667	-0.013885	-0.047302	-0.087433	-0.059509	-0.00946	-0.003204	-0.2002	-0.3154	-0.041809	-0.53711	0.0354	-0.097351	0.47333	0.039825	-0.008392	-0.29373	-0.13062	0.23773	-0.17258	-0.003357	-0.012054
56.49	0.001984	-0.038452	-0.029449	0.018616	0.006256	-0.21149	-0.045166	-0.001984	0.058899	0.000305	-0.072937	-0.010376	-0.081482	-0.052185	-0.24033	-0.006256	-0.049438	-0.076599	0.090179	-0.06424	-0.085907	0.012665	-0.032806	0.54321	-0.087128	-0.004578	-0.10681	-0.08255	0.2977	-0.21927	-0.001678	-0.014191
56.491	0.015717	-0.070648	-0.023041	0.018616	0.066681	-0.22537	-0.006866	0.005951	0.039673	0.034943	-0.093384	-0.012665	-0.1236	-0.015259	0.20447	0.010529	-0.08255	-0.16251	0.18066	-0.020447	0.26337	0.006256	-0.037842	0.27115	0.065155	0.003815	-0.10483	0.1445	0.20599	-0.2269	-0.007477	-0.010071
56.492	0.018311	0.012512	-0.013123	-0.003357	0.064392	-0.016632	0.022736	0.000153	0.036316	0.070496	0.019684	-0.001831	-0.17792	-0.006866	-0.11734	-0.001526	-0.065613	-0.21423	-0.06073	-0.031586	0.35721	0.013123	-0.26016	0.07431	0.86197	0.019073	-0.22308	0.070038	0.17593	-0.28214	-0.001373	-0.002747
56.493	0.012054	0.079346	-0.02594	0.010681	0.057068	0.030365	0.043945	0.012817	0.028229	0.04837	0.23712	-0.009918	-0.13016	0.049896	0.11917	0.001221	-0.046387	-0.13229	0.44815	-0.068054	0.18097	-0.055847	-0.40176	-0.10193	1.1995	0.027924	-0.17883	0.019226	0.1831	-0.23086	-0.00473	-0.000153
56.494	0.007019	0.12604	-0.044556	0.015717	0.034485	0.008698	0.021973	-0.006256	0.035553	-0.048828	0.43655	-0.012054	0.085449	0.15076	0.31845	0.039215	-0.02533	-0.17319	0.40085	-0.098267	0.013123	-0.093689	-0.31921	-0.24582	0.87524	0.011444	0.28168	-0.000763	0.13306	-0.16434	-0.001221	-0.007019
56.495	0.005493	0.13428	-0.048065	0.017548	0.021362	-0.033722	0.013885	-0.002899	0.018158	-0.15595	0.57419	-0.014191	0.31921	0.27298	0.71701	0.025024	-0.020752	-0.22766	-0.34012	-0.038452	-0.083771	-0.15076	-0.24887	-0.40375	0.34943	0.015259	-0.46051	-0.003357	0.055084	-0.069275	-0.00351	-0.003815
56.496	0.00885	0.15778	-0.040894	0.000916	0.004883	-0.028534	0.045166	-0.010834	-0.001831	-0.13351	0.1062	-0.018311	0.24063	0.30975	0.93628	0.034485	0.027618	-0.24368	-0.57083	-0.013275	-0.021973	-0.19486	0.00351	-0.32791	-0.19363	0.007782	-0.75165	-0.010529	0.014801	-0.031738	-0.000916	-0.008698
56.497	-0.000763	0.17838	-0.016479	-0.010529	-0.00473	0.02533	0.036163	0.001221	-0.024567	-0.10864	-0.23422	-0.012207	0.054932	0.32608	0.5304	0.010986	0.03006	-0.29846	-0.23895	-0.010376	0.026093	-0.15228	0.14633	-0.024261	-0.66666	-0.00885	-0.44281	-0.015411	-0.015411	-0.052795	-0.003967	-0.006256
56.498	-0.002594	0.20523	-0.00824	0.005341	-0.016632	0.027161	0.049591	-0.003052	-0.021973	-0.045319	-0.19882	-0.010376	-0.12299	0.26749	-0.63644	0.005341	0.018768	-0.45807	0.084381	-0.015106	0.093689	-0.084534	0.2356	0.003052	-0.9932	-0.004883	-0.77896	-0.01297	0.11536	0.10513	0.003815	-0.007629
56.499	-0.000916	0.19699	-0.015106	0.018158	-0.020905	0.039825	0.046997	0.003357	-0.035858	0.008087	0.044708	-0.010529	-0.20371	0.16235	-0.92255	-0.001831	-0.012665	-0.50461	-0.3273	0.022888	0.13458	-0.014343	0.26977	-0.087433	-0.77286	0.001831	-0.58655	-0.011902	0.2507	-0.034027	-0.001526	-0.007935
56.5	0.000763	0.18463	-0.004578	0.012665	-0.002747	0.037231	0.032349	0.00473	-0.035553	-0.006104	-0.096893	-0.005188	-0.054932	0.093842	-1.2628	-0.018005	-0.013885	-0.47577	-0.73227	0.043335	0.067902	-0.012207	0.26474	-0.025177	-0.40665	-0.000458	0.014801	-0.009155	0.16342	0.004272	0	-0.002136
56.501	0.003967	0.23132	-0.005341	0.01236	0.01236	0.055237	0.033417	0.002899	-0.036163	-0.0177	-0.08316	-0.00412	0.028839	-0.098114	-0.98969	0.005341	0.000305	-0.44327	-0.63751	0.018005	0.016174	0.090942	0.24719	-0.022583	-0.17441	-0.000458	-0.024567	-0.006866	0.056305	0.1593	0.000305	-0.012665
56.502	-0.006256	0.24704	0.019073	0.010986	0.035706	0.112	0.033875	0.003357	-0.031281	-0.034027	-0.16296	0.00473	0.061188	-0.034943	-0.63049	-0.003815	0.004578	-0.50232	-0.037994	0.039673	-0.10956	0.22995	0.18845	-0.050659	-0.13519	-0.002899	-0.096893	-0.012817	0.007172	-0.036926	-0.003357	-0.019684
56.503	-0.003967	0.28244	0.015869	0.00885	0.009155	0.23178	0.042877	0.004883	-0.032501	-0.049286	-0.25497	-0.002289	0.1503	0.076141	-0.65842	0.001068	0.027924	-0.54611	0.51498	0.035248	-0.095367	-0.000458	0.30197	-0.1265	-0.14633	-0.002136	-0.025177	-0.013275	0.13351	-0.016174	0.000916	-0.019379
56.504	-0.010071	0.28549	0.005493	-0.007324	-0.010071	0.13565	0.076141	0.007629	-0.046692	-0.02594	-0.23651	0.000153	0.14694	-0.088501	-0.51041	-0.001526	0.046387	-0.48263	0.45258	0.041046	0.020905	-0.054016	0.53192	-0.046844	-0.21423	-0.070801	0.35629	-0.006256	0.20294	0.077057	-0.005798	-0.001678
56.505	-0.011749	0.29602	0.008545	0.006866	-0.000458	0.019073	0.10056	0.003357	-0.043793	0.010223	-0.21194	-0.00946	0.094757	-0.40894	-0.12909	0.000153	0.037689	-0.49637	0.81116	-0.003967	0.084229	-0.090942	0.57465	-0.002594	0.009918	-0.065002	0.46768	-0.009155	0.016937	0.078278	-0.006714	-0.012665
56.506	-0.013428	0.34378	0.014496	0.005951	0.019531	-0.013733	0.09613	0.009155	-0.041504	0.045776	-0.12116	-0.008698	-0.001221	-0.52185	0.57602	-0.002136	0.006866	-0.43869	0.99625	-0.031128	-0.025482	-0.17563	0.52475	0.097198	0.18845	-0.019836	-0.012207	-0.022278	-0.06424	0.42313	-0.001831	-0.014954
56.507	-0.012207	0.34409	0.031586	0.00824	0.019379	0.03067	0.090179	0.012207	-0.037537	0.039978	-0.063782	-0.004272	-0.054474	-0.42679	0.51071	-0.005798	-0.043488	-0.44693	0.53528	-0.015411	-0.028076	-0.22629	0.57236	0.31632	0.17471	-0.031586	0.13199	-0.014343	-0.16449	0.41031	0.000458	-0.001678
56.508	-0.010834	0.38193	0.044556	0.006409	0.023346	0.08194	0.08606	0.003815	-0.010986	0.010834	-0.10086	-0.001984	-0.050049	-0.20187	0.28275	-0.000916	-0.044861	-0.37872	-0.041656	-0.002899	-0.056763	-0.10635	0.40558	0.44479	-0.001678	-0.004425	0.6105	0.022125	-0.24857	0.50308	-0.001373	-0.00412
56.509	-0.009003	0.37384	0.045166	0.018158	0.023193	0.10269	0.074768	0.003204	0.003357	-0.024109	-0.048981	-0.000916	0.046387	-0.11658	-0.03479	0.01297	-0.04303	-0.40512	-0.19409	0.012207	-0.020294	-0.013885	-0.33752	0.26077	-0.22049	0.038757	0.77911	0.000458	-0.16525	0.1796	0.001373	-0.002747
56.51	-0.015869	0.37567	0.068817	0.015564	0.0177	0.09613	0.058899	0.000916	0.005493	-0.015564	0.000916	0.010376	0.046539	-0.11688	0.02121	0.00412	-0.039825	-0.3952	-0.24384	0.015869	-0.020447	0.024109	-1.046	-0.045013	-0.34393	0.044861	1.2366	-0.01358	-0.1062	0.020905	0.000458	0.003204
56.511	0	0.3952	0.080566	0.015564	-0.000153	0.13901	0.078583	0.013428	0.014191	0.029907	0.12421	-0.007019	-0.066223	-0.16205	0.18677	-0.008392	-0.026245	-0.32013	-0.085449	0.032959	0.027008	0.083008	-0.81314	-0.17792	-0.28198	0.037231	0.85068	0.007629	-0.007019	-0.24582	0	0.002594
56.512	-0.001373	0.36911	0.060577	0.01236	-0.041046	0.10819	0.062103	-0.001068	0.035095	0.038452	0.17609	-0.011139	-0.10544	-0.19196	0.21545	0.000153	0.01236	-0.36911	0.2356	0.016632	0.014191	-0.075226	-0.16281	-0.092926	-0.39948	0.032196	-0.8461	0.000916	0.17777	-0.37384	-0.001678	0.005188
56.513	0.013885	0.32623	0.061951	0.027313	-0.039368	0.008087	0.040588	-0.007172	0.060883	0.019684	0.1503	-0.005035	-0.088654	-0.13794	0.30594	-0.002747	0.024719	-0.34637	0.007172	-0.019226	0.040131	-0.13336	0.063934	-0.14435	-0.23773	0.016022	-0.93323	-0.009003	0.068665	-0.21103	0.000305	-0.000153
56.514	0.014343	0.31204	0.05722	0.014648	-0.010376	-0.077209	0.051575	-0.006866	0.073242	0.013428	0.11047	0.002289	-0.078735	-0.10864	0.34805	-0.00885	0.014191	-0.40558	0.21316	-0.007172	0.05661	-0.11261	0.009308	-0.17319	0.059509	-0.003052	-0.71686	-0.010834	-0.018616	0.045929	0.002136	-0.014343
56.515	0.008545	0.30533	0.058136	0.012512	0.013885	-0.083923	0.062256	-0.001221	0.068665	-0.015564	-0.14297	-0.002136	0.013275	-0.020905	0.22736	0.007019	0.014954	-0.47745	0.26749	0.004272	0.086212	-0.11017	0.032501	-0.22675	0.21027	0.002289	-0.66834	-0.005188	0.065613	0.045929	0.001373	-0.010376
56.516	0.003204	0.29404	0.059814	0.019989	0.021667	-0.14725	0.049133	-0.006714	0.078888	0.004883	-0.28412	-0.000763	-0.019531	0.00061	0.23453	0.014801	0.009613	-0.53482	-0.060577	0.026398	0.027924	0.038605	-0.094757	-0.095978	0.33783	0.012817	-0.83801	-0.003357	0.25955	-0.063477	-0.000458	-0.003052
56.517	0.011292	0.28809	0.06073	0.019073	0.02594	-0.1239	0.032196	-0.000305	0.076752	0.024719	-0.14099	-0.000458	-0.10498	0.025787	0.20828	0.010071	0.005188	-0.52094	-0.31769	0.048828	0.068359	-0.072327	-0.17792	-0.031891	0.40802	0.017853	-0.75363	-0.011292	0.41138	0.048218	0	-0.007782
56.518	0.004272	0.34592	0.062408	0.034332	0.023956	-0.13489	0.066071	-0.005951	0.072632	-0.021362	-0.075226	0.00061	-0.020599	0.11261	0.29617	0.009155	0.020599	-0.42984	-0.3772	0.06012	0.12619	-0.076294	-0.23422	0.048676	0.26871	0.00824	-0.63446	-0.009918	0.31815	0.3009	-0.001373	-0.011597
56.519	0.004272	0.31143	0.063019	0.007172	0.041809	-0.12543	0.056	-0.00473	0.063782	-0.021362	-0.056152	-0.00473	0.00885	0.20004	0.42358	0.007782	0.057373	-0.35797	-0.13641	0.005646	0.11047	-0.025482	-0.1828	0.013885	0.094757	0.001526	-0.43457	-0.003204	0.1973	0.4332	-0.002136	-0.007782
56.52	0.005035	0.34805	0.049133	-0.019836	0.054474	-0.12054	0.059662	-0.005493	0.045013	0.02243	0.11993	-0.001068	-0.074768	0.13046	0.6192	0.009918	0.040894	-0.3093	-0.26321	0.024109	-0.075836	-0.024261	-0.13809	0.079041	0.12787	-0.007935	0.17151	-0.01297	0.069427	0.35309	-0.005341	-0.009766
56.521	0.005188	0.34515	0.059357	-0.014038	0.052185	-0.028687	0.059357	-0.009003	0.04837	0.013428	0.26871	0.002594	-0.02182	0.061646	-0.30365	0.004425	0.031586	-0.47394	-0.46143	0.022278	-0.35828	0.061646	-0.10941	0.034485	0.22217	-0.006409	0.37796	-0.003662	-0.02121	0.29572	-0.006409	-0.010223
56.522	0.005646	0.37094	0.07782	0.004578	0.048065	-0.04837	0.065155	-0.005798	0.032806	-0.030823	0.29724	-0.005341	0.121	-0.001526	-0.5629	-0.000305	0.0177	-0.53009	-0.37186	-0.017242	-0.34195	0.076294	-0.01297	-0.010834	0.14984	-0.001068	0.19714	-0.001984	0.012512	0.18768	-0.001526	-0.006866
56.523	-0.00824	0.34302	0.076447	0.00946	0.063171	0.037079	0.06958	-0.003815	0.018311	-0.037231	0.028992	-0.003204	0.10193	-0.039825	-0.5777	-0.000153	0.028839	-0.57342	-0.3508	-0.036774	-0.20859	0.21881	-0.069275	-0.049286	0.088806	0.007629	0.061951	-0.012665	0.002441	0.059814	-0.001831	-0.002747
56.524	-0.005341	0.3392	0.077057	0.010376	0.05722	0.14008	0.071259	0.002899	-0.010834	0.006714	-0.029907	0.001068	0.004883	-0.16235	-0.48477	-0.011902	-0.059509	-0.56366	-0.2153	-0.055237	0.10651	0.3746	-0.046539	-0.045319	0.065308	-0.011597	-0.11627	-0.00824	-0.00824	-0.12756	0.000763	-0.010681
56.525	-0.018005	0.3273	0.076752	0.016327	0.018005	0.14954	0.050507	0.002136	-0.004272	-0.016479	0.21408	0.003204	0.000763	-0.10803	-0.11978	-0.010376	-0.042877	-0.65506	-0.2919	-0.016327	0.053253	0.21332	-0.027924	-0.025787	0.051422	-0.016632	-0.071716	-0.005493	-0.13077	-0.29114	0.000153	-0.011749
56.526	-0.012512	0.31677	0.090637	0.013733	0.012207	0.11673	0.040283	-0.000763	0.008087	-0.059204	0.22675	0.00885	0.074768	0.17487	0.8017	0.001678	0.010376	-0.64087	-0.56244	-0.014496	0.078125	0.042572	0.013275	-0.10117	0.046082	-0.019836	0.098419	-0.006561	-0.14755	-0.46982	0	-0.01358
